<?xml version="1.0" encoding="utf-8"?>
<!-- Generator: Adobe Illustrator 21.1.0, SVG Export Plug-In . SVG Version: 6.00 Build 0)  -->
<svg version="1.1" id="Layer_1" xmlns="http://www.w3.org/2000/svg" xmlns:xlink="http://www.w3.org/1999/xlink" x="0px" y="0px"
	 viewBox="0 0 205.2 37.5" style="enable-background:new 0 0 205.2 37.5;" xml:space="preserve">
<style type="text/css">
	.st0{display:none;}
	.st1{display:inline;fill:#FFFFFF;}
	.st2{display:inline;fill:none;stroke:#000000;stroke-width:8;stroke-linecap:round;stroke-miterlimit:10;}
</style>
<g id="Layer_4" class="st0">
	<path class="st1" d="M102,17.9c-3.7-0.7-6-1.3-7.3-2.7c-1.4-1.4-2-3.6-2.7-7.3c-0.1-0.3-0.3-0.5-0.6-0.5c-0.3,0-0.6,0.2-0.6,0.5
		c-0.7,3.7-1.3,6-2.7,7.3c-1.4,1.4-3.6,2-7.3,2.7c-0.3,0.1-0.5,0.3-0.5,0.6c0,0.3,0.2,0.6,0.5,0.6c3.7,0.7,6,1.3,7.3,2.7
		c1.4,1.4,2,3.6,2.7,7.3c0.1,0.3,0.3,0.5,0.6,0.5c0.3,0,0.6-0.2,0.6-0.5c0.7-3.7,1.3-6,2.7-7.3c1.4-1.4,3.6-2,7.3-2.7
		c0.3-0.1,0.5-0.3,0.5-0.6S102.3,18,102,17.9z"/>
</g>
<g id="Layer_2" class="st0">
	<path class="st2" d="M-81.1-45.6c6.7-9.8,10.6-21.7,10.6-34.5c0-33.8-27.4-61.3-61.3-61.3s-61.3,27.4-61.3,61.3
		c0,33.8,27.4,61.3,61.3,61.3c14.6,0,28-5.1,38.6-13.7"/>
</g>
<g>
	<path d="M1,6.2c1-0.2,2-0.3,3.2-0.4c1.1-0.1,2.3-0.2,3.4-0.2c1.2,0,2.4,0.1,3.6,0.3s2.3,0.6,3.2,1.2s1.7,1.4,2.3,2.4
		c0.6,1,0.9,2.4,0.9,4c0,1.5-0.3,2.8-0.8,3.8s-1.2,1.9-2.1,2.5c-0.9,0.7-1.9,1.1-3,1.4c-1.1,0.3-2.2,0.4-3.4,0.4c-0.1,0-0.3,0-0.5,0
		c-0.3,0-0.5,0-0.8,0s-0.5,0-0.8-0.1c-0.3,0-0.4,0-0.6-0.1v8.2H1V6.2z M8,9.6c-0.5,0-0.9,0-1.3,0.1c-0.4,0-0.7,0.1-1,0.1v7.8
		c0.1,0,0.2,0,0.4,0.1c0.2,0,0.4,0,0.6,0.1c0.2,0,0.4,0,0.6,0c0.2,0,0.3,0,0.4,0c0.6,0,1.2-0.1,1.8-0.2c0.6-0.1,1.1-0.3,1.6-0.6
		c0.5-0.3,0.9-0.7,1.1-1.3c0.3-0.5,0.4-1.3,0.4-2.2c0-0.8-0.1-1.4-0.4-1.9c-0.3-0.5-0.6-0.9-1.1-1.2c-0.4-0.3-1-0.5-1.5-0.6
		C9.2,9.7,8.6,9.6,8,9.6z"/>
	<path d="M29.7,24.6h-7.3l-1.8,5.3h-4.7l8.6-24.1H28l8.6,24.1h-4.9L29.7,24.6z M23.6,20.8h5.1l-1.8-5.3l-0.7-3.8h-0.2l-0.7,3.8
		L23.6,20.8z"/>
	<path d="M54.7,11.5c0,0.6-0.1,1.2-0.2,1.8c-0.1,0.6-0.4,1.1-0.7,1.6c-0.3,0.5-0.8,0.9-1.3,1.3c-0.5,0.4-1.2,0.7-2,0.8v0.2
		c0.7,0.1,1.3,0.3,1.9,0.6c0.6,0.3,1.1,0.6,1.6,1.1c0.5,0.5,0.8,1.1,1.1,1.7s0.4,1.5,0.4,2.4c0,1.2-0.3,2.3-0.8,3.2
		c-0.5,0.9-1.2,1.6-2.1,2.2c-0.9,0.6-1.9,1-3,1.3c-1.1,0.3-2.3,0.4-3.4,0.4c-0.4,0-0.9,0-1.5,0c-0.6,0-1.3,0-1.9-0.1
		c-0.7,0-1.4-0.1-2.1-0.2s-1.4-0.2-2-0.3V6.1c0.4-0.1,0.9-0.1,1.5-0.2c0.6-0.1,1.2-0.1,1.8-0.2c0.6,0,1.3-0.1,2-0.1c0.7,0,1.3,0,2,0
		c1.1,0,2.2,0.1,3.3,0.3c1.1,0.2,2,0.5,2.8,0.9c0.8,0.4,1.5,1,2,1.8C54.5,9.4,54.7,10.3,54.7,11.5z M44.6,16c0.3,0,0.7,0,1.1,0
		s0.8-0.1,1-0.1c0.9-0.3,1.6-0.7,2.2-1.2c0.6-0.5,0.9-1.3,0.9-2.1c0-0.6-0.1-1.1-0.3-1.5c-0.2-0.4-0.5-0.7-0.9-0.9
		c-0.4-0.2-0.8-0.4-1.3-0.5s-1-0.1-1.5-0.1c-0.6,0-1.1,0-1.6,0s-0.9,0.1-1.2,0.1V16H44.6z M46.2,26.3c0.6,0,1.1-0.1,1.7-0.2
		c0.5-0.1,1-0.3,1.4-0.6c0.4-0.3,0.7-0.6,1-1.1c0.2-0.4,0.4-0.9,0.4-1.5c0-0.7-0.1-1.3-0.4-1.8c-0.3-0.4-0.7-0.8-1.2-1
		c-0.5-0.2-1-0.4-1.6-0.5c-0.6-0.1-1.2-0.1-1.8-0.1h-2.5v6.5c0.1,0,0.3,0.1,0.5,0.1s0.5,0,0.8,0.1s0.6,0,0.9,0
		C45.7,26.3,45.9,26.3,46.2,26.3z"/>
	<path d="M73.9,29.9H58.8V6h4.7v19.7h10.5V29.9z"/>
	<path d="M73.8,17.9c0-4,0.9-7.1,2.6-9.2c1.8-2.2,4.3-3.2,7.5-3.2c1.7,0,3.2,0.3,4.5,0.9c1.3,0.6,2.3,1.4,3.2,2.5
		c0.8,1.1,1.5,2.4,1.9,3.9c0.4,1.5,0.6,3.2,0.6,5.1c0,4-0.9,7.1-2.6,9.2c-1.8,2.2-4.3,3.2-7.5,3.2c-1.7,0-3.2-0.3-4.5-0.9
		c-1.3-0.6-2.3-1.4-3.2-2.5s-1.5-2.4-1.9-3.9C74,21.5,73.8,19.8,73.8,17.9z M78.7,17.9c0,1.2,0.1,2.3,0.3,3.3c0.2,1,0.5,1.9,0.9,2.6
		c0.4,0.7,1,1.3,1.6,1.7c0.7,0.4,1.4,0.6,2.4,0.6c1.7,0,2.9-0.6,3.9-1.9s1.4-3.4,1.4-6.3c0-1.2-0.1-2.2-0.3-3.2
		c-0.2-1-0.5-1.9-0.9-2.6c-0.4-0.8-0.9-1.3-1.6-1.8c-0.7-0.4-1.5-0.6-2.4-0.6c-1.7,0-2.9,0.7-3.9,2C79.2,13,78.7,15.1,78.7,17.9z"/>
	<path d="M104.7,23.2c0-0.9,0.1-1.7,0.4-2.5c0.3-0.8,0.7-1.5,1.2-2.2s1.1-1.3,1.8-1.9c0.7-0.6,1.5-1.1,2.3-1.6
		c-0.6-0.8-1-1.5-1.4-2.3c-0.4-0.8-0.5-1.6-0.5-2.5c0-0.6,0.1-1.1,0.3-1.7c0.2-0.6,0.6-1.1,1-1.6c0.5-0.5,1.1-0.8,1.8-1.1
		c0.8-0.3,1.7-0.4,2.7-0.4c1,0,1.9,0.1,2.7,0.4c0.7,0.3,1.3,0.6,1.8,1c0.5,0.4,0.8,0.9,1,1.4c0.2,0.5,0.3,1.1,0.3,1.6
		c0,0.9-0.3,1.9-1,2.9c-0.7,1-1.8,2-3.4,2.9c0.8,1.2,1.6,2.4,2.4,3.4c0.8,1,1.7,2,2.7,3c0.5-0.6,1-1.3,1.4-2.1
		c0.4-0.9,0.8-1.7,1.1-2.6l3.2,1.7c-0.1,0.4-0.3,0.9-0.6,1.3c-0.2,0.5-0.5,1-0.8,1.5c-0.3,0.5-0.6,1-0.9,1.4
		c-0.3,0.4-0.6,0.8-0.8,1.1c0.7,0.7,1.4,1.2,1.9,1.6c0.5,0.4,1.1,0.7,1.7,1l-2.4,3.3c-0.6-0.3-1.3-0.7-2-1.2c-0.7-0.5-1.3-1.1-2-1.7
		c-0.8,0.8-1.8,1.4-3.1,2c-1.2,0.6-2.7,0.9-4.5,0.9c-1.2,0-2.3-0.2-3.3-0.5s-1.9-0.8-2.7-1.4c-0.8-0.6-1.4-1.4-1.8-2.2
		C104.9,25.4,104.7,24.4,104.7,23.2z M118.1,24.8c-1.2-1.2-2.2-2.4-3.2-3.6s-1.8-2.3-2.5-3.4c-1.1,0.8-1.9,1.7-2.5,2.4
		c-0.6,0.8-0.9,1.7-0.9,2.6c0,1.2,0.4,2.1,1.3,2.7c0.9,0.7,2,1,3.4,1c0.9,0,1.8-0.2,2.6-0.6C117.1,25.6,117.7,25.2,118.1,24.8z
		 M112.9,10.5c0,1,0.4,2,1.2,3.1c0.9-0.6,1.5-1.1,1.9-1.6c0.4-0.5,0.6-1,0.6-1.4c0-0.5-0.2-1-0.5-1.3c-0.3-0.3-0.8-0.5-1.5-0.5
		c-0.6,0-1.1,0.2-1.4,0.5S112.9,10,112.9,10.5z"/>
	<path d="M155.2,29.9H140V6h4.7v19.7h10.5V29.9z"/>
	<path d="M158.1,6h4.7v23.9h-4.7V6z"/>
	<path d="M166.2,25.7l10.1-14.1l1.8-1.4h-11.9V6h16.6v4.2l-10.2,14.3l-1.7,1.3h11.9v4.2h-16.6V25.7z"/>
	<path d="M197.3,24.6H190l-1.8,5.3h-4.7l8.6-24.1h3.4l8.6,24.1h-4.9L197.3,24.6z M191.2,20.8h5.1l-1.8-5.3l-0.7-3.8h-0.2l-0.7,3.8
		L191.2,20.8z"/>
</g>
</svg>
